<svg width="202" height="202" viewBox="0 0 202 202" fill="none" xmlns="http://www.w3.org/2000/svg">
<g filter="url(#filter0_d_118_100)">
<circle cx="101" cy="101" r="85" transform="rotate(-90 101 101)" fill="white"/>
</g>
<path d="M100.789 101.431C93.112 95.6559 89.5735 91.5862 85.2942 82.1214C82.4475 73.7196 82.4893 68.3055 85.2942 57.482C87.2696 52.1592 93.0417 46.8133 95.5818 46.6863C98.122 46.5593 98.9521 47.1366 100.789 48.2104" stroke="#3D3D3D" stroke-width="2" stroke-linecap="round"/>
<path d="M100.662 101.322C108.339 95.5464 111.878 91.4767 116.157 82.0119C119.004 73.6101 118.962 68.196 116.157 57.3725C114.182 52.0497 108.409 46.7038 105.869 46.5768C103.329 46.4498 102.499 47.0271 100.662 48.1009" stroke="#3D3D3D" stroke-width="2" stroke-linecap="round"/>
<path d="M100.585 101.112C110.19 101.271 115.445 102.484 124.47 107.626C131.712 112.75 134.86 117.154 138.953 127.559C140.483 133.027 138.956 140.744 136.976 142.34C134.995 143.936 133.984 143.957 131.867 144.168" stroke="#3D3D3D" stroke-width="2" stroke-linecap="round"/>
<path d="M100.751 101.125C97.9349 110.31 97.4642 115.682 99.5655 125.855C102.201 134.325 105.417 138.681 114.048 145.789C118.775 148.934 126.587 149.866 128.717 148.476C130.846 147.085 131.179 146.13 132.034 144.182" stroke="#3D3D3D" stroke-width="2" stroke-linecap="round"/>
<path d="M100.516 101.351C103.636 92.2652 106.414 87.6422 114.093 80.6476C121.204 75.3439 126.366 73.7106 137.526 73.0336C143.199 73.2675 150.067 77.1051 150.973 79.4817C151.878 81.8582 151.586 82.8261 151.132 84.9051" stroke="#3D3D3D" stroke-width="2" stroke-linecap="round"/>
<path d="M100.581 101.196C108.446 106.713 113.41 108.821 123.734 109.966C132.604 110.077 137.74 108.364 147.168 102.352C151.619 98.8285 154.92 91.6869 154.256 89.2318C153.592 86.7768 152.786 86.1656 151.197 84.7504" stroke="#3D3D3D" stroke-width="2" stroke-linecap="round"/>
<path d="M100.884 101.23C93.0187 106.747 88.0548 108.855 77.7308 110C68.8605 110.111 63.7244 108.398 54.2973 102.386C49.8455 98.8624 46.5449 91.7209 47.2091 89.2658C47.8732 86.8108 48.6788 86.1996 50.2677 84.7844" stroke="#3D3D3D" stroke-width="2" stroke-linecap="round"/>
<path d="M100.739 101.317C97.6194 92.2313 94.8424 87.6083 87.1631 80.6137C80.0522 75.31 74.8902 73.6767 63.7296 72.9997C58.0569 73.2335 51.189 77.0712 50.2833 79.4477C49.3776 81.8243 49.67 82.7922 50.1236 84.8712" stroke="#3D3D3D" stroke-width="2" stroke-linecap="round"/>
<path d="M100.577 101.037C103.393 110.222 103.864 115.594 101.763 125.766C99.1272 134.237 95.9111 138.592 87.2799 145.7C82.5531 148.845 74.7412 149.777 72.6115 148.387C70.4818 146.997 70.1495 146.042 69.2945 144.093" stroke="#3D3D3D" stroke-width="2" stroke-linecap="round"/>
<path d="M100.616 101.2C91.0101 101.36 85.7553 102.572 76.73 107.714C69.4884 112.838 66.3399 117.243 62.2473 127.648C60.7167 133.115 62.2442 140.833 64.2246 142.429C66.2049 144.025 67.2159 144.046 69.3332 144.257" stroke="#3D3D3D" stroke-width="2" stroke-linecap="round"/>
<path d="M100.635 101.082C100.168 96.2956 100.177 93.7087 99.4818 88.4199C98.7862 83.1311 98.8963 84.3799 97.6137 82.0077" stroke="#3D3D3D" stroke-width="2" stroke-linecap="round"/>
<path d="M100.784 101.082C101.251 96.2956 101.242 93.7087 101.937 88.4199C102.633 83.1311 102.523 84.3799 103.805 82.0077" stroke="#3D3D3D" stroke-width="2" stroke-linecap="round"/>
<path d="M100.688 101.17C103.879 104.768 105.391 106.866 109.063 110.736C112.734 114.606 111.911 113.66 114.343 114.826" stroke="#3D3D3D" stroke-width="2" stroke-linecap="round"/>
<path d="M100.565 101.258C103.001 105.405 104.529 107.492 107.075 112.18C109.621 116.867 108.976 115.792 109.333 118.465" stroke="#3D3D3D" stroke-width="2" stroke-linecap="round"/>
<path d="M100.683 100.916C97.4914 104.514 95.9788 106.612 92.3074 110.482C88.636 114.352 89.459 113.407 87.0271 114.572" stroke="#3D3D3D" stroke-width="2" stroke-linecap="round"/>
<path d="M100.804 101.004C98.3684 105.151 96.8399 107.238 94.294 111.926C91.7481 116.613 92.393 115.538 92.0363 118.211" stroke="#3D3D3D" stroke-width="2" stroke-linecap="round"/>
<path d="M100.833 101.093C105.241 99.1695 107.704 98.3794 112.519 96.0836C117.334 93.7877 116.18 94.2783 118.04 92.3254" stroke="#3D3D3D" stroke-width="2" stroke-linecap="round"/>
<path d="M100.88 101.235C105.576 100.201 108.033 99.392 113.278 98.4192C118.523 97.4464 117.302 97.7276 119.954 98.2144" stroke="#3D3D3D" stroke-width="2" stroke-linecap="round"/>
<path d="M100.056 101.235C95.3593 100.201 92.9021 99.392 87.6572 98.4192C82.4124 97.4464 83.634 97.7276 80.9816 98.2144" stroke="#3D3D3D" stroke-width="2" stroke-linecap="round"/>
<path d="M100.102 101.093C95.694 99.1694 93.2307 98.3793 88.4157 96.0835C83.6007 93.7876 84.7543 94.2782 82.8946 92.3253" stroke="#3D3D3D" stroke-width="2" stroke-linecap="round"/>
<path d="M83.7559 77.7354L63.3717 50.5673" stroke="#3D3D3D" stroke-width="2" stroke-linecap="round"/>
<path d="M66.8311 67.6248L77.2697 69.3641" stroke="#3D3D3D" stroke-width="2" stroke-linecap="round"/>
<path d="M61.0312 59.5059L71.4699 61.2453" stroke="#3D3D3D" stroke-width="2" stroke-linecap="round"/>
<path d="M77.1738 69.3568L78.9132 58.9181" stroke="#3D3D3D" stroke-width="2" stroke-linecap="round"/>
<path d="M71.375 61.2378L73.1143 50.7991" stroke="#3D3D3D" stroke-width="2" stroke-linecap="round"/>
<path d="M61.4972 47.605L64.9622 49.03L61.5205 51.3514L61.4972 47.605Z" fill="#3D3D3D"/>
<path d="M64.4347 51.9599L61.5205 51.3514L64.9622 49.03L64.4347 51.9599Z" fill="#3D3D3D"/>
<path d="M73.1699 110.342L41.0324 121.333" stroke="#3D3D3D" stroke-width="2" stroke-linecap="round"/>
<path d="M58.3242 123.315L63.2041 113.924" stroke="#3D3D3D" stroke-width="2" stroke-linecap="round"/>
<path d="M48.8105 126.321L53.6905 116.931" stroke="#3D3D3D" stroke-width="2" stroke-linecap="round"/>
<path d="M63.167 114.013L53.7767 109.133" stroke="#3D3D3D" stroke-width="2" stroke-linecap="round"/>
<path d="M53.6533 117.019L44.2631 112.139" stroke="#3D3D3D" stroke-width="2" stroke-linecap="round"/>
<path d="M37.6359 122.201L40.0619 119.346L41.2061 123.336L37.6359 122.201Z" fill="#3D3D3D"/>
<path d="M42.6854 120.753L41.2061 123.336L40.0619 119.346L42.6854 120.753Z" fill="#3D3D3D"/>
<path d="M100.786 130.248L101.308 164.209" stroke="#3D3D3D" stroke-width="2" stroke-linecap="round"/>
<path d="M108.536 148.377L101.113 140.834" stroke="#3D3D3D" stroke-width="2" stroke-linecap="round"/>
<path d="M108.456 158.354L101.033 150.811" stroke="#3D3D3D" stroke-width="2" stroke-linecap="round"/>
<path d="M101.187 140.896L93.6437 148.318" stroke="#3D3D3D" stroke-width="2" stroke-linecap="round"/>
<path d="M101.106 150.873L93.5636 158.295" stroke="#3D3D3D" stroke-width="2" stroke-linecap="round"/>
<path d="M101.084 167.708L99.1181 164.518L103.267 164.663L101.084 167.708Z" fill="#3D3D3D"/>
<path d="M101.267 162.458L103.267 164.663L99.1181 164.518L101.267 162.458Z" fill="#3D3D3D"/>
<path d="M128.208 110.128L160.668 120.126" stroke="#3D3D3D" stroke-width="2" stroke-linecap="round"/>
<path d="M147.844 108.359L138.376 113.088" stroke="#3D3D3D" stroke-width="2" stroke-linecap="round"/>
<path d="M157.307 111.519L147.839 116.247" stroke="#3D3D3D" stroke-width="2" stroke-linecap="round"/>
<path d="M138.457 113.038L143.186 122.505" stroke="#3D3D3D" stroke-width="2" stroke-linecap="round"/>
<path d="M147.921 116.197L152.649 125.665" stroke="#3D3D3D" stroke-width="2" stroke-linecap="round"/>
<path d="M163.926 121.421L160.285 122.304L161.705 118.403L163.926 121.421Z" fill="#3D3D3D"/>
<path d="M158.99 119.624L161.705 118.403L160.285 122.304L158.99 119.624Z" fill="#3D3D3D"/>
<path d="M118.22 77.4756L137.759 49.6937" stroke="#3D3D3D" stroke-width="2" stroke-linecap="round"/>
<path d="M122.605 58.2543L124.177 68.7195" stroke="#3D3D3D" stroke-width="2" stroke-linecap="round"/>
<path d="M128.535 50.23L130.107 60.6953" stroke="#3D3D3D" stroke-width="2" stroke-linecap="round"/>
<path d="M124.154 68.6264L134.62 67.0549" stroke="#3D3D3D" stroke-width="2" stroke-linecap="round"/>
<path d="M130.084 60.6022L140.549 59.0307" stroke="#3D3D3D" stroke-width="2" stroke-linecap="round"/>
<path d="M139.997 46.9953L139.712 50.7311L136.441 48.1752L139.997 46.9953Z" fill="#3D3D3D"/>
<path d="M136.763 51.1348L136.441 48.1752L139.712 50.7311L136.763 51.1348Z" fill="#3D3D3D"/>
<path d="M83.7559 77.7354L63.3717 50.5673" stroke="#3D3D3D" stroke-width="2" stroke-linecap="round"/>
<path d="M66.8311 67.6248L77.2697 69.3641" stroke="#3D3D3D" stroke-width="2" stroke-linecap="round"/>
<path d="M61.0312 59.5059L71.4699 61.2453" stroke="#3D3D3D" stroke-width="2" stroke-linecap="round"/>
<path d="M77.1738 69.3568L78.9132 58.9181" stroke="#3D3D3D" stroke-width="2" stroke-linecap="round"/>
<path d="M71.375 61.2378L73.1143 50.7991" stroke="#3D3D3D" stroke-width="2" stroke-linecap="round"/>
<path d="M61.4972 47.605L64.9622 49.03L61.5205 51.3514L61.4972 47.605Z" fill="#3D3D3D"/>
<path d="M64.4347 51.9599L61.5205 51.3514L64.9622 49.03L64.4347 51.9599Z" fill="#3D3D3D"/>
<path d="M73.1699 110.342L41.0324 121.333" stroke="#3D3D3D" stroke-width="2" stroke-linecap="round"/>
<path d="M58.3242 123.315L63.2041 113.924" stroke="#3D3D3D" stroke-width="2" stroke-linecap="round"/>
<path d="M48.8105 126.321L53.6905 116.931" stroke="#3D3D3D" stroke-width="2" stroke-linecap="round"/>
<path d="M63.167 114.013L53.7767 109.133" stroke="#3D3D3D" stroke-width="2" stroke-linecap="round"/>
<path d="M53.6533 117.019L44.2631 112.139" stroke="#3D3D3D" stroke-width="2" stroke-linecap="round"/>
<path d="M37.6359 122.201L40.0619 119.346L41.2061 123.336L37.6359 122.201Z" fill="#3D3D3D"/>
<path d="M42.6854 120.753L41.2061 123.336L40.0619 119.346L42.6854 120.753Z" fill="#3D3D3D"/>
<path d="M100.786 130.248L101.308 164.209" stroke="#3D3D3D" stroke-width="2" stroke-linecap="round"/>
<path d="M108.536 148.377L101.113 140.834" stroke="#3D3D3D" stroke-width="2" stroke-linecap="round"/>
<path d="M108.456 158.354L101.033 150.811" stroke="#3D3D3D" stroke-width="2" stroke-linecap="round"/>
<path d="M101.187 140.896L93.6437 148.318" stroke="#3D3D3D" stroke-width="2" stroke-linecap="round"/>
<path d="M101.106 150.873L93.5636 158.295" stroke="#3D3D3D" stroke-width="2" stroke-linecap="round"/>
<path d="M101.084 167.708L99.1181 164.518L103.267 164.663L101.084 167.708Z" fill="#3D3D3D"/>
<path d="M101.267 162.458L103.267 164.663L99.1181 164.518L101.267 162.458Z" fill="#3D3D3D"/>
<path d="M128.208 110.128L160.668 120.126" stroke="#3D3D3D" stroke-width="2" stroke-linecap="round"/>
<path d="M147.844 108.359L138.376 113.088" stroke="#3D3D3D" stroke-width="2" stroke-linecap="round"/>
<path d="M157.307 111.519L147.839 116.247" stroke="#3D3D3D" stroke-width="2" stroke-linecap="round"/>
<path d="M138.457 113.038L143.186 122.505" stroke="#3D3D3D" stroke-width="2" stroke-linecap="round"/>
<path d="M147.921 116.197L152.649 125.665" stroke="#3D3D3D" stroke-width="2" stroke-linecap="round"/>
<path d="M163.926 121.421L160.285 122.304L161.705 118.403L163.926 121.421Z" fill="#3D3D3D"/>
<path d="M158.99 119.624L161.705 118.403L160.285 122.304L158.99 119.624Z" fill="#3D3D3D"/>
<path d="M118.22 77.4756L137.759 49.6937" stroke="#3D3D3D" stroke-width="2" stroke-linecap="round"/>
<path d="M122.605 58.2543L124.177 68.7195" stroke="#3D3D3D" stroke-width="2" stroke-linecap="round"/>
<path d="M128.535 50.23L130.107 60.6953" stroke="#3D3D3D" stroke-width="2" stroke-linecap="round"/>
<path d="M124.154 68.6264L134.62 67.0549" stroke="#3D3D3D" stroke-width="2" stroke-linecap="round"/>
<path d="M130.084 60.6022L140.549 59.0307" stroke="#3D3D3D" stroke-width="2" stroke-linecap="round"/>
<path d="M139.997 46.9953L139.712 50.7311L136.441 48.1752L139.997 46.9953Z" fill="#3D3D3D"/>
<path d="M136.763 51.1348L136.441 48.1752L139.712 50.7311L136.763 51.1348Z" fill="#3D3D3D"/>
<defs>
<filter id="filter0_d_118_100" x="0.6" y="0.6" width="200.8" height="200.8" filterUnits="userSpaceOnUse" color-interpolation-filters="sRGB">
<feFlood flood-opacity="0" result="BackgroundImageFix"/>
<feColorMatrix in="SourceAlpha" type="matrix" values="0 0 0 0 0 0 0 0 0 0 0 0 0 0 0 0 0 0 127 0" result="hardAlpha"/>
<feMorphology radius="6" operator="dilate" in="SourceAlpha" result="effect1_dropShadow_118_100"/>
<feOffset/>
<feGaussianBlur stdDeviation="4.7"/>
<feComposite in2="hardAlpha" operator="out"/>
<feColorMatrix type="matrix" values="0 0 0 0 0 0 0 0 0 0 0 0 0 0 0 0 0 0 0.25 0"/>
<feBlend mode="normal" in2="BackgroundImageFix" result="effect1_dropShadow_118_100"/>
<feBlend mode="normal" in="SourceGraphic" in2="effect1_dropShadow_118_100" result="shape"/>
</filter>
</defs>
</svg>
