<svg width="202" height="202" viewBox="0 0 202 202" fill="none" xmlns="http://www.w3.org/2000/svg">
<g filter="url(#filter0_d_55_363)">
<circle cx="101" cy="101" r="85" fill="#3D3D3D"/>
</g>
<line y1="-1" x2="13.4844" y2="-1" transform="matrix(-0.707107 0.707107 0.707107 0.707107 100.24 148.142)" stroke="white" stroke-width="2"/>
<line x1="68.0518" y1="134.216" x2="68.0518" y2="147.7" stroke="white" stroke-width="2"/>
<line y1="-1" x2="13.4844" y2="-1" transform="matrix(-1 0 0 1 67.0518 134.216)" stroke="white" stroke-width="2"/>
<line x1="54.1389" y1="101.608" x2="44.604" y2="111.143" stroke="white" stroke-width="2"/>
<line y1="-1" x2="13.4844" y2="-1" transform="matrix(-0.707107 -0.707107 -0.707107 0.707107 53.4318 100.901)" stroke="white" stroke-width="2"/>
<line x1="67.3582" y1="68.7129" x2="53.8738" y2="68.7129" stroke="white" stroke-width="2"/>
<line y1="-1" x2="13.4844" y2="-1" transform="matrix(0 -1 -1 0 67.3582 67.7129)" stroke="white" stroke-width="2"/>
<line x1="37.8289" y1="100.117" x2="100.458" y2="100.117" stroke="white" stroke-width="2"/>
<line x1="99.4563" y1="163.745" x2="99.4563" y2="38.4903" stroke="white" stroke-width="2"/>
<line x1="55.465" y1="144.695" x2="99.7503" y2="100.41" stroke="white" stroke-width="2"/>
<line x1="56.8792" y1="56.1264" x2="101.164" y2="100.412" stroke="white" stroke-width="2"/>
<line x1="99.5325" y1="54.3668" x2="89.9976" y2="44.8319" stroke="white" stroke-width="2"/>
<path d="M99.6248 100.954C108.382 94.3665 112.418 89.7245 117.299 78.9286C120.546 69.3452 120.498 63.1697 117.299 50.824C115.046 44.7526 108.462 38.6549 105.564 38.5101C102.667 38.3652 101.72 39.0236 99.6248 40.2485" stroke="white" stroke-width="2"/>
<path d="M99.5366 100.714C110.493 100.896 116.487 102.279 126.781 108.145C135.041 113.989 138.633 119.013 143.301 130.882C145.047 137.118 143.304 145.921 141.045 147.741C138.787 149.561 137.633 149.585 135.218 149.826" stroke="white" stroke-width="2"/>
<path d="M99.7272 100.73C99.7272 111.584 99.7272 121.35 99.7272 129.113C99.7272 136.875 105.049 143.567 114.894 151.675C120.286 155.262 129.196 156.326 131.626 154.74C134.055 153.154 134.434 152.065 135.409 149.842" stroke="white" stroke-width="2"/>
<path d="M99.4591 100.988C103.018 90.6238 106.186 85.3507 114.945 77.3724C123.056 71.3228 128.944 69.4598 141.674 68.6876C148.144 68.9543 155.978 73.3317 157.011 76.0425C158.044 78.7533 157.711 79.8573 157.193 82.2286" stroke="white" stroke-width="2"/>
<path d="M99.5333 100.811C108.504 107.104 114.166 109.508 125.942 110.814C136.06 110.941 141.918 108.987 152.671 102.129C157.749 98.1102 161.514 89.9643 160.756 87.164C159.999 84.3636 159.08 83.6666 157.268 82.0523" stroke="white" stroke-width="2"/>
<path d="M99.7646 100.68C100.298 95.2209 100.286 92.2703 101.08 86.2377C101.873 80.2051 101.748 81.6295 103.211 78.9237" stroke="white" stroke-width="2"/>
<path d="M99.6533 100.781C103.293 104.885 105.019 107.278 109.206 111.693C113.394 116.107 112.455 115.028 115.229 116.357" stroke="white" stroke-width="2"/>
<path d="M99.5151 100.882C102.293 105.612 104.036 107.992 106.94 113.339C109.844 118.686 109.109 117.46 109.516 120.509" stroke="white" stroke-width="2"/>
<path d="M99.8204 100.693C104.848 98.4991 107.658 97.598 113.15 94.9793C118.642 92.3605 117.326 92.9201 119.447 90.6926" stroke="white" stroke-width="2"/>
<path d="M99.8733 100.856C105.23 99.6753 108.033 98.7528 114.015 97.6432C119.998 96.5337 118.604 96.8544 121.63 97.4096" stroke="white" stroke-width="2"/>
<line x1="99.5798" y1="132.424" x2="99.5798" y2="100.666" stroke="white"/>
<defs>
<filter id="filter0_d_55_363" x="0.6" y="0.6" width="200.8" height="200.8" filterUnits="userSpaceOnUse" color-interpolation-filters="sRGB">
<feFlood flood-opacity="0" result="BackgroundImageFix"/>
<feColorMatrix in="SourceAlpha" type="matrix" values="0 0 0 0 0 0 0 0 0 0 0 0 0 0 0 0 0 0 127 0" result="hardAlpha"/>
<feMorphology radius="6" operator="dilate" in="SourceAlpha" result="effect1_dropShadow_55_363"/>
<feOffset/>
<feGaussianBlur stdDeviation="4.7"/>
<feComposite in2="hardAlpha" operator="out"/>
<feColorMatrix type="matrix" values="0 0 0 0 0 0 0 0 0 0 0 0 0 0 0 0 0 0 0.25 0"/>
<feBlend mode="normal" in2="BackgroundImageFix" result="effect1_dropShadow_55_363"/>
<feBlend mode="normal" in="SourceGraphic" in2="effect1_dropShadow_55_363" result="shape"/>
</filter>
</defs>
</svg>
