<svg width="149" height="149" viewBox="0 0 149 149" fill="none" xmlns="http://www.w3.org/2000/svg">
<g filter="url(#filter0_d_66_43)">
<circle cx="74.5" cy="74.5" r="58.5" fill="#3D3D3D"/>
</g>
<path d="M45.3018 48H96.1895C96.6498 48 97.0462 48.3133 97.1582 48.752L97.1768 48.8408L105.537 100.841C105.635 101.449 105.165 102 104.55 102H52.6348C52.1366 102 51.7141 101.633 51.6445 101.14L44.3115 49.1396C44.2267 48.5378 44.694 48 45.3018 48Z" stroke="white" stroke-width="2"/>
<path d="M53.9161 53.7436H90.6183C91.0786 53.7437 91.4751 54.057 91.587 54.4955L91.6056 54.5854L97.6407 92.226C97.7382 92.8337 97.2689 93.3842 96.6534 93.3842H59.2101C58.7117 93.3841 58.2893 93.0174 58.2198 92.5239L52.9259 54.8832C52.8413 54.2816 53.3086 53.7437 53.9161 53.7436Z" stroke="white" stroke-width="2"/>
<path d="M78.1791 68.1025C77.7896 68.1026 77.5382 68.208 77.351 68.3574C77.1484 68.5192 76.9511 68.7901 76.7826 69.2207C76.4351 70.1092 76.308 71.4184 76.308 72.9883C76.308 74.1318 77.0563 75.2727 78.2523 76.1836C79.4477 77.0939 80.8555 77.5897 81.7689 77.5898C82.1714 77.5898 82.4286 77.4857 82.6146 77.3438C82.813 77.1923 83.0054 76.9396 83.1703 76.5322C83.5129 75.6855 83.641 74.418 83.641 72.8457C83.6408 71.6952 82.8843 70.5177 81.683 69.5703C80.4806 68.6221 79.0772 68.1025 78.1791 68.1025Z" stroke="white" stroke-width="2"/>
<path d="M73.1543 63.7949C73.5438 63.7949 73.7952 63.9003 73.9824 64.0497C74.185 64.2115 74.3823 64.4824 74.5508 64.913C74.8983 65.8015 75.0254 67.1107 75.0254 68.6806C75.0254 69.8241 74.2771 70.9651 73.0811 71.8759C71.8856 72.7862 70.4778 73.2821 69.5645 73.2822C69.162 73.2822 68.9048 73.178 68.7188 73.0361C68.5204 72.8847 68.3279 72.6319 68.1631 72.2245C67.8205 71.3778 67.6924 70.1103 67.6924 68.538C67.6926 67.3875 68.4491 66.21 69.6504 65.2626C70.8527 64.3144 72.2562 63.7949 73.1543 63.7949Z" stroke="white" stroke-width="2"/>
<path d="M90.8973 93L88.8432 84.387C88.7831 84.1348 88.6744 83.8967 88.5234 83.686L83.6093 76.8292" stroke="white" stroke-width="2"/>
<path d="M77.8975 93L76.4552 85.1854C76.3938 84.8528 76.4177 84.5101 76.5248 84.1893L78.8817 77.1273M70.5837 73.3176L75.5058 78.9591C75.7486 79.2374 75.9096 79.5774 75.971 79.9416L76.6419 83.9235" stroke="white" stroke-width="2"/>
<path d="M56.8973 83.9999L60.6005 75.7737C60.823 75.2792 61.2369 74.8963 61.7471 74.7127L67.8973 72.4999" stroke="white" stroke-width="2"/>
<defs>
<filter id="filter0_d_66_43" x="0.6" y="0.6" width="147.8" height="147.8" filterUnits="userSpaceOnUse" color-interpolation-filters="sRGB">
<feFlood flood-opacity="0" result="BackgroundImageFix"/>
<feColorMatrix in="SourceAlpha" type="matrix" values="0 0 0 0 0 0 0 0 0 0 0 0 0 0 0 0 0 0 127 0" result="hardAlpha"/>
<feMorphology radius="6" operator="dilate" in="SourceAlpha" result="effect1_dropShadow_66_43"/>
<feOffset/>
<feGaussianBlur stdDeviation="4.7"/>
<feComposite in2="hardAlpha" operator="out"/>
<feColorMatrix type="matrix" values="0 0 0 0 0 0 0 0 0 0 0 0 0 0 0 0 0 0 0.25 0"/>
<feBlend mode="normal" in2="BackgroundImageFix" result="effect1_dropShadow_66_43"/>
<feBlend mode="normal" in="SourceGraphic" in2="effect1_dropShadow_66_43" result="shape"/>
</filter>
</defs>
</svg>
