<svg width="143" height="143" viewBox="0 0 143 143" fill="none" xmlns="http://www.w3.org/2000/svg">
<g filter="url(#filter0_d_132_46)">
<circle cx="71.5" cy="71.5" r="55.5" fill="white"/>
</g>
<path d="M73.353 65.3846C80.3735 65.3847 86.0649 71.0761 86.0649 78.0966C86.0649 85.117 80.3734 90.8084 73.353 90.8085C66.3326 90.8085 60.6412 85.117 60.6411 78.0966C60.6411 71.076 66.3325 65.3846 73.353 65.3846Z" stroke="#3D3D3D" stroke-width="2"/>
<circle cx="72.4037" cy="77.1477" r="12.7118" stroke="#3D3D3D" stroke-width="2"/>
<circle cx="72.9349" cy="77.678" r="9.44706" stroke="#3D3D3D" stroke-width="2"/>
<rect x="41.0972" y="55.524" width="64.6" height="38.6788" stroke="#3D3D3D" stroke-width="2"/>
<line x1="40.75" y1="61.3589" x2="105.394" y2="61.3589" stroke="#3D3D3D" stroke-width="2"/>
<circle cx="46.9528" cy="89.4562" r="1.78529" stroke="#3D3D3D"/>
<circle cx="46.9528" cy="83.5796" r="1.78529" stroke="#3D3D3D"/>
<circle cx="47.695" cy="83.7468" r="1.78529" stroke="#3D3D3D"/>
<circle cx="47.695" cy="89.4392" r="1.78529" stroke="#3D3D3D"/>
<path d="M96.5898 49.2563V53.897H87.2051V49.2563H96.5898Z" stroke="#3D3D3D" stroke-width="2"/>
<line x1="41.1007" y1="55.755" x2="36.3571" y2="52.9088" stroke="#3D3D3D" stroke-width="2"/>
<line x1="106.563" y1="55.755" x2="101.819" y2="52.9088" stroke="#3D3D3D" stroke-width="2"/>
<line x1="40.9905" y1="94.5758" x2="36.2469" y2="90.7809" stroke="#3D3D3D" stroke-width="2"/>
<line x1="36.9229" y1="52.0513" x2="36.9229" y2="91.8974" stroke="#3D3D3D" stroke-width="2"/>
<line x1="36.8726" y1="52.9487" x2="86.2059" y2="52.9487" stroke="#3D3D3D" stroke-width="2"/>
<line x1="102.333" y1="53.0513" x2="97.5894" y2="53.0513" stroke="#3D3D3D" stroke-width="2"/>
<defs>
<filter id="filter0_d_132_46" x="0.6" y="0.6" width="141.8" height="141.8" filterUnits="userSpaceOnUse" color-interpolation-filters="sRGB">
<feFlood flood-opacity="0" result="BackgroundImageFix"/>
<feColorMatrix in="SourceAlpha" type="matrix" values="0 0 0 0 0 0 0 0 0 0 0 0 0 0 0 0 0 0 127 0" result="hardAlpha"/>
<feMorphology radius="6" operator="dilate" in="SourceAlpha" result="effect1_dropShadow_132_46"/>
<feOffset/>
<feGaussianBlur stdDeviation="4.7"/>
<feComposite in2="hardAlpha" operator="out"/>
<feColorMatrix type="matrix" values="0 0 0 0 0 0 0 0 0 0 0 0 0 0 0 0 0 0 0.25 0"/>
<feBlend mode="normal" in2="BackgroundImageFix" result="effect1_dropShadow_132_46"/>
<feBlend mode="normal" in="SourceGraphic" in2="effect1_dropShadow_132_46" result="shape"/>
</filter>
</defs>
</svg>
